<?xml version="1.0" encoding="UTF-8" standalone="no"?>
<!DOCTYPE svg PUBLIC "-//W3C//DTD SVG 1.1//EN" "http://www.w3.org/Graphics/SVG/1.1/DTD/svg11.dtd">
<svg width="100%" height="100%" viewBox="0 0 1080 1080" version="1.1" xmlns="http://www.w3.org/2000/svg" xmlns:xlink="http://www.w3.org/1999/xlink" xml:space="preserve" xmlns:serif="http://www.serif.com/" style="fill-rule:evenodd;clip-rule:evenodd;stroke-linecap:round;stroke-linejoin:round;stroke-miterlimit:1.5;">
    <g transform="matrix(-1.12082,0.300322,0.299544,1.11791,719.566,-262.701)">
        <path d="M681.26,368.622C681.26,335.163 654.166,307.998 620.793,307.998L343.885,307.998C310.512,307.998 283.418,335.163 283.418,368.622L283.418,808.292C283.418,841.751 310.512,868.916 343.885,868.916L620.793,868.916C654.166,868.916 681.26,841.751 681.26,808.292L681.26,368.622Z" style="fill:white;"/>
        <clipPath id="_clip1">
            <path d="M681.26,368.622C681.26,335.163 654.166,307.998 620.793,307.998L343.885,307.998C310.512,307.998 283.418,335.163 283.418,368.622L283.418,808.292C283.418,841.751 310.512,868.916 343.885,868.916L620.793,868.916C654.166,868.916 681.26,841.751 681.26,808.292L681.26,368.622Z"/>
        </clipPath>
        <g clip-path="url(#_clip1)">
            <g transform="matrix(-0.861805,-5.23245e-17,0,0.864043,801.745,11.3188)">
                <text x="185.845px" y="436.757px" style="font-family:'ArialMT', 'Arial', sans-serif;font-size:40px;">Les arabes</text>
            </g>
        </g>
        <path d="M681.26,368.622C681.26,335.163 654.166,307.998 620.793,307.998L343.885,307.998C310.512,307.998 283.418,335.163 283.418,368.622L283.418,808.292C283.418,841.751 310.512,868.916 343.885,868.916L620.793,868.916C654.166,868.916 681.26,841.751 681.26,808.292L681.26,368.622Z" style="fill:none;stroke:black;stroke-width:1.29px;"/>
    </g>
    <g transform="matrix(1.16036,0,0,1.15735,-19.6845,-173.976)">
        <path d="M681.26,368.622C681.26,335.163 654.166,307.998 620.793,307.998L343.885,307.998C310.512,307.998 283.418,335.163 283.418,368.622L283.418,808.292C283.418,841.751 310.512,868.916 343.885,868.916L620.793,868.916C654.166,868.916 681.26,841.751 681.26,808.292L681.26,368.622Z" style="fill:white;"/>
        <clipPath id="_clip2">
            <path d="M681.26,368.622C681.26,335.163 654.166,307.998 620.793,307.998L343.885,307.998C310.512,307.998 283.418,335.163 283.418,368.622L283.418,808.292C283.418,841.751 310.512,868.916 343.885,868.916L620.793,868.916C654.166,868.916 681.26,841.751 681.26,808.292L681.26,368.622Z"/>
        </clipPath>
        <g clip-path="url(#_clip2)">
            <g transform="matrix(0.861805,0,0,0.864043,162.933,11.3188)">
                <text x="185.845px" y="436.757px" style="font-family:'ArialMT', 'Arial', sans-serif;font-size:40px;">Les noirs</text>
            </g>
        </g>
        <path d="M681.26,368.622C681.26,335.163 654.166,307.998 620.793,307.998L343.885,307.998C310.512,307.998 283.418,335.163 283.418,368.622L283.418,808.292C283.418,841.751 310.512,868.916 343.885,868.916L620.793,868.916C654.166,868.916 681.26,841.751 681.26,808.292L681.26,368.622Z" style="fill:none;stroke:black;stroke-width:1.29px;"/>
    </g>
    <g transform="matrix(1.12082,0.300322,-0.299544,1.11791,360.434,-262.701)">
        <path d="M681.26,368.622C681.26,335.163 654.166,307.998 620.793,307.998L343.885,307.998C310.512,307.998 283.418,335.163 283.418,368.622L283.418,808.292C283.418,841.751 310.512,868.916 343.885,868.916L620.793,868.916C654.166,868.916 681.26,841.751 681.26,808.292L681.26,368.622Z" style="fill:white;"/>
        <clipPath id="_clip3">
            <path d="M681.26,368.622C681.26,335.163 654.166,307.998 620.793,307.998L343.885,307.998C310.512,307.998 283.418,335.163 283.418,368.622L283.418,808.292C283.418,841.751 310.512,868.916 343.885,868.916L620.793,868.916C654.166,868.916 681.26,841.751 681.26,808.292L681.26,368.622Z"/>
        </clipPath>
        <g clip-path="url(#_clip3)">
            <g transform="matrix(0.861805,0,0,0.864043,162.933,11.3188)">
                <text x="185.845px" y="436.757px" style="font-family:'ArialMT', 'Arial', sans-serif;font-size:40px;">Les juifs</text>
            </g>
        </g>
        <path d="M681.26,368.622C681.26,335.163 654.166,307.998 620.793,307.998L343.885,307.998C310.512,307.998 283.418,335.163 283.418,368.622L283.418,808.292C283.418,841.751 310.512,868.916 343.885,868.916L620.793,868.916C654.166,868.916 681.26,841.751 681.26,808.292L681.26,368.622Z" style="fill:none;stroke:black;stroke-width:1.29px;"/>
    </g>
</svg>
